<svg id="Calque_2" data-name="Calque 2" xmlns="http://www.w3.org/2000/svg" viewBox="0 0 120 120">
  <defs>
    <style>
      .cls-1 {
        fill: none;
      }

      .cls-2 {
        fill: #fff;
      }
    </style>
  </defs>
  <title>appareillage</title>
  <g id="Calque_2-2" data-name="Calque 2-2">
    <g id="Calque_1-2-2" data-name="Calque 1-2-2">
      <rect class="cls-1" width="120" height="120"/>
    </g>
  </g>
  <g>
    <path class="cls-2" d="M98.41,19.33H21.9a4.13,4.13,0,0,0-4.13,4.13V100a4.13,4.13,0,0,0,4.13,4.13H98.41a4.13,4.13,0,0,0,4.13-4.13V23.46A4.13,4.13,0,0,0,98.41,19.33ZM94.28,95.85H26V27.59H94.28Z"/>
    <path class="cls-2" d="M60.15,88.69a27,27,0,1,0-27-27A27,27,0,0,0,60.15,88.69Zm0-50.64A23.67,23.67,0,1,1,36.48,61.72,23.7,23.7,0,0,1,60.15,38Z"/>
    <path class="cls-2" d="M48.32,73.42a5.5,5.5,0,1,0-5.5-5.5A5.51,5.51,0,0,0,48.32,73.42Zm0-9.36a3.85,3.85,0,1,1-3.85,3.85A3.86,3.86,0,0,1,48.32,64.06Z"/>
    <path class="cls-2" d="M72,73.42a5.5,5.5,0,1,0-5.5-5.5A5.51,5.51,0,0,0,72,73.42Zm0-9.36a3.85,3.85,0,1,1-3.85,3.85A3.86,3.86,0,0,1,72,64.06Z"/>
    <circle class="cls-2" cx="60.15" cy="50.16" r="4.68"/>
  </g>
</svg>
