<svg xmlns="http://www.w3.org/2000/svg" viewBox="0 0 120 120">
  <defs>
    <style>
      .cls-1 {
        fill: none;
      }

      .cls-2 {
        fill: #fff;
      }
    </style>
  </defs>
  <title>cables-family</title>
  <g id="Calque_2" data-name="Calque 2">
    <g id="Calque_1-2" data-name="Calque 1">
      <g id="Calque_2-2" data-name="Calque 2">
        <g id="Calque_1-2-2" data-name="Calque 1-2">
          <rect class="cls-1" width="120" height="120"/>
        </g>
      </g>
      <path class="cls-2" d="M111,64.21h0s-12.78-1.09-22.66-1.4c0,0,0-.1,0-.15v0c7.18-.87,13.76-2.19,13.76-2.19h0c2.36,0,4.27-2.29,4.27-5.08s-1.91-5-4.27-5.08a96,96,0,0,1-15.2,2.49c-.21-.69-.36-1.08-.36-1.08-2.12-4.63-5.54-7.64-9.4-7.64a7.38,7.38,0,0,0-1,.08H19v-.08c-6.42,0-11.63,8.33-11.63,18.61S12.53,81.28,19,81.28H77.1c3.59,0,6.8-2.6,8.93-6.69a131.16,131.16,0,0,1,16.89,2.94,4.41,4.41,0,0,0,4-3.86c2.5.2,4,.36,4,.36,2.28,0,4.12-2.21,4.12-4.9S113.25,64.25,111,64.21ZM19,77.42c-3.68,0-7.77-6.06-7.77-14.75,0-8.28,3.71-14.16,7.24-14.71A4,4,0,0,0,19,48H70c-2.73,3.41-4.48,8.71-4.48,14.67S67.25,74,70,77.42ZM76.31,63.35c.92,0,1.91,0,2.95,0a3.55,3.55,0,0,0-.8.86c-1.41-.07-2.72-.09-3.86,0-4.49.2-4.46,9.9,0,9.83,2.41,0,4.84,0,7.2.2-1.37,2-3,3.16-4.61,3.19H77.1a5.33,5.33,0,0,1-3.76-2c-2.25-2.47-4-7-4-12.72,0-6.07,2-10.84,4.45-13.18a5,5,0,0,1,3.32-1.57,3.58,3.58,0,0,1,.57.06c1.58.26,3.19,1.59,4.49,3.73a10.35,10.35,0,0,1,.7,1.35c-2.1.11-4.3.15-6.59.12C71.69,53.1,71.66,63.15,76.31,63.35ZM102.06,52.5a3.76,3.76,0,0,1,1.28,5.75,3.21,3.21,0,0,1-2-2.57A3.52,3.52,0,0,1,102.06,52.5Zm-12.7,2,.11,0c2.57-.29,9-1.54,9-1.54a5.79,5.79,0,0,0,0,5.92s-3.78.81-9,1.54a2.12,2.12,0,0,1-.28-.17,3.66,3.66,0,0,1-1.17-2.83A3.31,3.31,0,0,1,89.36,54.5ZM99.58,75l-.1,0v0s-7.1-1.38-9.58-1.65l-.1,0a1.93,1.93,0,0,1-.63-.62h.09a3.75,3.75,0,0,1-.63-2.15,3.53,3.53,0,0,1,1.13-2.73,2,2,0,0,1,.27-.16,59.5,59.5,0,0,1,9.71,1.65,5.61,5.61,0,0,0-.95,2.85A5.48,5.48,0,0,0,99.58,75Zm5.3-2.07a3.51,3.51,0,0,1-1.9,2.52,3.4,3.4,0,0,1-.79-3.06,4.1,4.1,0,0,1,.43-1.19h0a2.55,2.55,0,0,1,1.49-1.36,2.93,2.93,0,0,1,.76,1.5h0A3.7,3.7,0,0,1,104.88,72.92Zm2-1.47a4.38,4.38,0,0,0-4-3.73h0s-2.33-.47-5.75-1.07a3.05,3.05,0,0,1,.89-1.34,2,2,0,0,1,.27-.16c4.9.19,9.2.63,9.2.63a5.59,5.59,0,0,0,0,5.71Zm6-2.18a3.51,3.51,0,0,1-1.68,2.67,3.4,3.4,0,0,1-1-3,3.1,3.1,0,0,1,1.68-2.67A3.5,3.5,0,0,1,112.94,69.27Z"/>
    </g>
  </g>
</svg>
