<svg xmlns="http://www.w3.org/2000/svg" viewBox="0 0 120 120">
  <defs>
    <style>
      .cls-1 {
        fill: none;
      }

      .cls-2 {
        fill: #fff;
      }
    </style>
  </defs>
  <title>eclairage-family</title>
  <g id="Calque_2" data-name="Calque 2">
    <g id="Calque_1-2" data-name="Calque 1">
      <g id="Calque_2-2" data-name="Calque 2">
        <g id="Calque_1-2-2" data-name="Calque 1-2">
          <g id="Calque_2-2-2" data-name="Calque 2-2">
            <g id="Calque_1-2-2-2" data-name="Calque 1-2-2">
              <rect class="cls-1" width="120" height="120"/>
            </g>
          </g>
        </g>
      </g>
      <path class="cls-2" d="M86.82,85.18c-11.27,0-27.07-11.74-35.93-21.48A54.36,54.36,0,0,1,41,47.29c-2.53-6.65-3-12.35-1.39-16,1-2.21,3.21-4.85,8.26-4.85C62.09,26.4,73,36.95,81,44.65l.8.77A68,68,0,0,1,92.33,59.93c2.41,4.5,5.12,11,4.39,16.56a10.11,10.11,0,0,1-5,7.75l-.12.07-.13.05A12.79,12.79,0,0,1,86.82,85.18Zm-39-55.42c-3.92,0-4.87,2.15-5.18,2.85-1.25,2.84-.73,7.75,1.45,13.48a50.81,50.81,0,0,0,9.25,15.34c11,12.12,28.35,22.93,36.75,19.85a6.81,6.81,0,0,0,3.26-5.22c.49-3.68-.91-8.71-4-14.54a64.47,64.47,0,0,0-9.94-13.74l-.74-.71C70.69,39.36,60.73,29.76,47.86,29.76Z"/>
      <g>
        <path class="cls-2" d="M61.12,49.44c4.65,4.8,6.59,10.41,4.35,12.53s-7.83,0-12.48-4.83-6.59-10.41-4.35-12.53S56.47,44.64,61.12,49.44Z"/>
        <path class="cls-2" d="M70.68,41.85c4.59,4.74,6.68,10.13,4.66,12s-7.37-.39-12-5.13-6.68-10.13-4.66-12S66.09,37.11,70.68,41.85Z"/>
        <path class="cls-2" d="M81.73,62.71c4.63,4.53,6.72,9.86,4.67,11.91s-7.46,0-12.09-4.5-6.72-9.86-4.67-11.91S77.1,58.18,81.73,62.71Z"/>
      </g>
      <path class="cls-2" d="M89.68,86.11c-4.17,1.58-7.15,2.56-17.62-2.39l-.67-.33A81.28,81.28,0,0,1,51.58,68.28l-.07-.06L51.25,68c-.89-.93-1.7-1.81-2.4-2.62a51.34,51.34,0,0,1-9.32-15.1A43.27,43.27,0,0,1,37,41.92l-.41-2.34A15.43,15.43,0,0,1,38,31.38a11.65,11.65,0,0,0-2.19,3.48l0-.18L32.09,41a92.49,92.49,0,0,0-5.64,12c-3.11,8.12-4,14.58-2.72,19.23L10.81,85.72,11.61,96l.13.35a10.08,10.08,0,0,0,1.54,2.76L7.23,105l-.47,2.68,2.76-.39,6.57-6.22,4.68,2.31L14,109.71v2.21l2.68-.28,7.42-6.57L32,108.92l.06,0a6.89,6.89,0,0,0,1.56.48,5.8,5.8,0,0,0,1,.1,4.17,4.17,0,0,0,2.76-1l11.64-9.93c3.81,1.25,13.29,2.32,31.16-6.91l5.09-2.63L85.14,89A13,13,0,0,0,89.68,86.11ZM50,93.28,48.49,92.1,46.86,93.5,34.39,104.13l-.1,0c-6-2.92-15.62-7.63-16.83-8.27a4.45,4.45,0,0,1-.59-1l-.55-7.14L30,73.47l-.74-1.65c-1.48-3.28-.7-9.25,2.18-16.82.72-1.9,1.5-3.69,2.23-5.27A57.69,57.69,0,0,0,47.81,72.06c7.88,8,16.33,14.07,24.32,17.61C56.83,96.34,50.57,93.55,50,93.28Z"/>
      <rect class="cls-2" x="61.97" y="14.64" width="15.48" height="4.19" transform="translate(46.28 84.49) rotate(-84.43)"/>
      <rect class="cls-2" x="84.32" y="27.17" width="15.48" height="4.19" transform="translate(7.42 75.82) rotate(-46.45)"/>
      <rect class="cls-2" x="98.02" y="49.62" width="15.48" height="4.19" transform="translate(-3.88 8.84) rotate(-4.7)"/>
    </g>
  </g>
</svg>
