<svg xmlns="http://www.w3.org/2000/svg" viewBox="0 0 120 120">
  <defs>
    <style>
      .cls-1 {
        fill: none;
      }

      .cls-2 {
        fill: #fff;
      }
    </style>
  </defs>
  <title>genie-climatique-family</title>
  <g id="Calque_2" data-name="Calque 2">
    <g id="Calque_1-2" data-name="Calque 1">
      <g id="Calque_2-2" data-name="Calque 2">
        <g id="Calque_1-2-2" data-name="Calque 1-2">
          <rect class="cls-1" width="120" height="120"/>
        </g>
      </g>
      <g>
        <polygon class="cls-2" points="94.48 57.31 87.6 59.68 83.25 57.16 87.6 54.65 94.48 57.02 95.09 55.24 89.77 53.4 94.31 50.78 93.37 49.15 88.82 51.77 89.9 46.24 88.05 45.88 86.66 53.02 82.31 55.53 82.31 50.51 87.8 45.73 86.56 44.31 82.31 48.01 82.31 42.76 80.42 42.76 80.42 48.01 76.17 44.31 74.93 45.73 80.42 50.51 80.42 55.53 76.07 53.02 74.68 45.88 72.83 46.24 73.91 51.77 69.36 49.15 68.42 50.78 72.97 53.4 67.64 55.24 68.25 57.02 75.13 54.65 79.48 57.16 75.13 59.68 68.25 57.31 67.64 59.09 72.97 60.93 68.42 63.55 69.36 65.18 73.91 62.56 72.83 68.09 74.68 68.45 76.07 61.31 80.42 58.8 80.42 63.82 74.93 68.6 76.17 70.02 80.42 66.32 80.42 71.57 82.31 71.57 82.31 66.32 86.56 70.02 87.8 68.6 82.31 63.82 82.31 58.8 86.66 61.31 88.05 68.45 89.9 68.09 88.82 62.56 93.37 65.18 94.31 63.55 89.77 60.93 95.09 59.09 94.48 57.31"/>
        <path class="cls-2" d="M47.41,77.8V19.25a9.14,9.14,0,1,0-18.28,0V77.8a15.41,15.41,0,0,0-6.41,12.57,15.55,15.55,0,0,0,31.1,0A15.4,15.4,0,0,0,47.41,77.8Zm-9.14,23.33a10.76,10.76,0,0,1-5.52-20l1.16-.7V19.25a4.36,4.36,0,1,1,8.72,0V80.44l1.16.7a10.76,10.76,0,0,1-5.52,20Z"/>
        <path class="cls-2" d="M40.26,83V37.77a2,2,0,1,0-4,0V83a7.68,7.68,0,1,0,4,0Z"/>
        <path class="cls-2" d="M89,24.46a8,8,0,1,0-8,8A8,8,0,0,0,89,24.46Zm-8,6.08A6.09,6.09,0,1,1,87,24.46,6.09,6.09,0,0,1,81,30.54Z"/>
        <rect class="cls-2" x="80" y="10.42" width="1.92" height="4.46"/>
        <rect class="cls-2" x="75.96" y="11.13" width="1.92" height="4.46" transform="translate(0.07 27.1) rotate(-19.99)"/>
        <rect class="cls-2" x="72.41" y="13.18" width="1.92" height="4.45" transform="translate(7.25 50.75) rotate(-39.99)"/>
        <rect class="cls-2" x="69.77" y="16.32" width="1.92" height="4.46" transform="translate(19.32 70.55) rotate(-60.03)"/>
        <rect class="cls-2" x="68.37" y="20.18" width="1.92" height="4.46" transform="translate(35.22 86.79) rotate(-80)"/>
        <rect class="cls-2" x="67.1" y="25.55" width="4.46" height="1.92" transform="matrix(0.98, -0.17, 0.17, 0.98, -3.56, 12.48)"/>
        <rect class="cls-2" x="68.5" y="29.41" width="4.46" height="1.92" transform="translate(-5.71 39.41) rotate(-29.99)"/>
        <rect class="cls-2" x="71.14" y="32.55" width="4.45" height="1.92" transform="translate(0.54 68.17) rotate(-50)"/>
        <rect class="cls-2" x="74.69" y="34.6" width="4.46" height="1.92" transform="translate(17.19 95.66) rotate(-69.99)"/>
        <rect class="cls-2" x="80" y="34.04" width="1.92" height="4.46"/>
        <rect class="cls-2" x="84.04" y="33.33" width="1.92" height="4.46" transform="translate(-7.04 31.23) rotate(-20.01)"/>
        <rect class="cls-2" x="87.59" y="31.28" width="1.92" height="4.46" transform="translate(-0.81 64.79) rotate(-40.02)"/>
        <rect class="cls-2" x="90.23" y="28.14" width="1.92" height="4.46" transform="matrix(0.5, -0.87, 0.87, 0.5, 19.28, 94.13)"/>
        <rect class="cls-2" x="91.63" y="24.28" width="1.92" height="4.46" transform="translate(50.41 113.09) rotate(-80)"/>
        <rect class="cls-2" x="90.36" y="21.45" width="4.46" height="1.92" transform="translate(-2.49 16.44) rotate(-10.02)"/>
        <rect class="cls-2" x="88.96" y="17.59" width="4.45" height="1.92" transform="translate(2.94 48.07) rotate(-29.99)"/>
        <rect class="cls-2" x="86.32" y="14.45" width="4.45" height="1.92" transform="translate(19.83 73.34) rotate(-50.01)"/>
        <rect class="cls-2" x="82.77" y="12.4" width="4.46" height="1.92" transform="translate(43.37 88.66) rotate(-69.99)"/>
        <g>
          <path class="cls-2" d="M80,93.24s-1.91-10.31-.27-16.58a1.43,1.43,0,0,1,1.63-.93,1.54,1.54,0,0,1,1.62.93c1.67,5.78-.27,16.58-.27,16.58"/>
          <path class="cls-2" d="M80.7,96.7s-8,6.83-14.2,8.56a1.43,1.43,0,0,1-1.62-.94,1.54,1.54,0,0,1,0-1.86c4.16-4.35,14.47-8.09,14.47-8.09"/>
          <path class="cls-2" d="M83.47,94.36s9.9,3.46,14.53,8a1.43,1.43,0,0,1,0,1.88,1.54,1.54,0,0,1-1.61.94c-5.85-1.42-14.26-8.46-14.26-8.46"/>
          <circle class="cls-2" cx="81.35" cy="94.75" r="2.27"/>
        </g>
      </g>
      <path class="cls-2" d="M87.4,87a.72.72,0,1,0-.35,1.39h0a3.87,3.87,0,0,1,2.81,4.7.72.72,0,0,0,1.39.35A5.31,5.31,0,0,0,87.4,87Z"/>
      <path class="cls-2" d="M71.45,89.41a5.29,5.29,0,0,0-.6,4,.72.72,0,0,0,1.39-.35,3.87,3.87,0,0,1,2.81-4.7h0A.72.72,0,1,0,74.71,87,5.29,5.29,0,0,0,71.45,89.41Z"/>
      <path class="cls-2" d="M81.3,106.69a5.29,5.29,0,0,0,3.78-1.49.72.72,0,1,0-1-1,3.87,3.87,0,0,1-5.47-.09h0a.72.72,0,1,0-1,1A5.29,5.29,0,0,0,81.3,106.69Z"/>
      <path class="cls-2" d="M90.5,83.22a1,1,0,1,0-.5,2h0a5.52,5.52,0,0,1,4,6.69,1,1,0,0,0,2,.5,7.56,7.56,0,0,0-5.49-9.17Z"/>
      <path class="cls-2" d="M67.37,86.66a7.53,7.53,0,0,0-.85,5.72,1,1,0,0,0,2-.5,5.52,5.52,0,0,1,4-6.69h0a1,1,0,1,0-.5-2A7.54,7.54,0,0,0,67.37,86.66Z"/>
      <path class="cls-2" d="M81.4,110.87a7.53,7.53,0,0,0,5.38-2.12,1,1,0,1,0-1.42-1.47,5.52,5.52,0,0,1-7.8-.13h0a1,1,0,1,0-1.47,1.42A7.54,7.54,0,0,0,81.4,110.87Z"/>
    </g>
  </g>
</svg>
