<svg xmlns="http://www.w3.org/2000/svg" viewBox="0 0 120 120">
  <defs>
    <style>
      .cls-1 {
        fill: none;
      }

      .cls-2 {
        fill: #fff;
      }
    </style>
  </defs>
  <title>industrie-family</title>
  <g id="Calque_2" data-name="Calque 2">
    <g id="Calque_1-2" data-name="Calque 1">
      <g id="Calque_2-2" data-name="Calque 2">
        <g id="Calque_1-2-2" data-name="Calque 1-2">
          <g id="Calque_2-2-2" data-name="Calque 2-2">
            <g id="Calque_1-2-2-2" data-name="Calque 1-2-2">
              <rect class="cls-1" width="120" height="120"/>
            </g>
          </g>
        </g>
      </g>
      <g>
        <path class="cls-2" d="M105.56,39.09,83.47,23.94,81.73,36.23,62.44,24,59.69,36.66,39.72,24,37,36.66,34,6.92l-20,0-.46,20.7.08,62H40.79v16.95c0,4.08,4,6.69,8.66,5.86l39.5-7c2.43-.43,4.32-3,4.32-5.76v-10H107.5ZM90.7,99.94A2.27,2.27,0,0,1,89,102.21l-39.5,5.92c-1.8.27-3.3-.77-3.3-2.32V64.75c0-1.56,1.5-2.6,3.3-2.33L89,68.35a2.27,2.27,0,0,1,1.74,2.28V99.94Zm-50-54.44,2.74-12.66,20,12.66,2.74-12.66L86.8,45.94l1.92-11.86,11.46,8.07,1.71,41.94H93.28V71c0-2.75-1.9-5.33-4.32-5.76l-39.5-7C44.8,57.35,40.79,60,40.79,64v20H19.14l0-72.05,10.62,0,2.65,28.63Z"/>
        <path class="cls-2" d="M51.11,66.72a.09.09,0,0,0-.12.09V95.55a.1.1,0,0,0,.12.09L88,93.11A.08.08,0,0,0,88.1,93V71.35a.09.09,0,0,0-.07-.08ZM86.9,89.57v2.24L53,93.74V69.95L86.9,73.43V89.57Z"/>
        <path class="cls-2" d="M57.6,96.86l-5.79.47a.85.85,0,0,0-.82.77v6.07a.66.66,0,0,0,.82.6L57.6,104a.84.84,0,0,0,.75-.77V97.48A.65.65,0,0,0,57.6,96.86Zm-5.68,1.26,5.57-.48v4.16l-5.57.64V98.12Z"/>
        <path class="cls-2" d="M66.45,96.15l-5.09.41a.76.76,0,0,0-.72.72V103a.59.59,0,0,0,.72.57l5.09-.66a.76.76,0,0,0,.66-.72V96.73A.59.59,0,0,0,66.45,96.15Zm-5,1.15,4.9-.42v3.91l-4.9.56v-4Z"/>
        <path class="cls-2" d="M74.28,95.52l-4.51.36a.69.69,0,0,0-.63.67v5.34a.54.54,0,0,0,.63.54l4.51-.59a.69.69,0,0,0,.58-.67V96.07A.54.54,0,0,0,74.28,95.52Zm-4.42,1.06,4.34-.37V99.9l-4.34.5V96.59Z"/>
      </g>
      <rect class="cls-2" x="70.4" y="49.08" width="7.49" height="7.42"/>
      <rect class="cls-2" x="90.7" y="49.08" width="7.49" height="7.42"/>
      <rect class="cls-2" x="47.67" y="49.08" width="7.49" height="7.42"/>
      <rect class="cls-2" x="25.18" y="49.08" width="7.49" height="7.42"/>
      <rect class="cls-2" x="25.18" y="66.19" width="7.49" height="7.42"/>
      <rect class="cls-2" x="90.94" y="66.19" width="7.49" height="7.42"/>
    </g>
  </g>
</svg>
