<svg xmlns="http://www.w3.org/2000/svg" xmlns:xlink="http://www.w3.org/1999/xlink" viewBox="0 0 274.2 162.64"><defs><style>.a{fill:#28348a;}.b{fill:url(#a);}.c{fill:url(#b);}.d{fill:url(#c);}.e{fill:#009ee2;}</style><linearGradient id="a" x1="-5309.53" y1="-2305.52" x2="-5232.4" y2="-2290.73" gradientTransform="translate(10611.3 4626.91) scale(1.96)" gradientUnits="userSpaceOnUse"><stop offset="0" stop-color="#28348a"/><stop offset="0.16" stop-color="#263a8f"/><stop offset="0.38" stop-color="#1f4c9e"/><stop offset="0.64" stop-color="#146ab7"/><stop offset="0.93" stop-color="#0493d9"/><stop offset="1" stop-color="#009ee2"/></linearGradient><linearGradient id="b" x1="-4998.18" y1="-3176.11" x2="-5016.51" y2="-3158.91" gradientTransform="translate(20384.07 12816.99) scale(4.01)" gradientUnits="userSpaceOnUse"><stop offset="0" stop-color="#28348a"/><stop offset="0.15" stop-color="#263a8f"/><stop offset="0.37" stop-color="#1f4c9e"/><stop offset="0.61" stop-color="#156ab6"/><stop offset="0.89" stop-color="#0793d7"/><stop offset="1" stop-color="#00a6e6"/></linearGradient><linearGradient id="c" x1="-5309.53" y1="-2305.52" x2="-5232.4" y2="-2290.73" xlink:href="#a"/></defs><title>logo-sonepar-connect</title><path class="a" d="M137.36,199.63c0,1.27-2.53,3.24-6.32,3.24s-6.17-1.72-6.17-3.24v-5.81c0-.9,2.39-2.73,6.17-2.73s6.32,1.93,6.32,2.73Zm7.72,0v-5.81c0-2.17-4.66-5.84-13.91-5.84-9.52,0-14,3.92-14,5.84v5.81c0,2.86,5.28,6.16,14,6.16S145.08,202.86,145.08,199.63Z" transform="translate(-78.13 -69.76)"/><path class="a" d="M186.12,205.43h-4.44c-1.14,0-1.77-.29-1.77-.8v-9.86c0-1.71-2-3.49-5.8-3.49s-6.17,1.78-6.17,3.7l0,9.65c0,.51-.62.8-1.76.8h-4.32c-1.14,0-1.77-.29-1.77-.8v-15.2c0-.51.63-.79,1.77-.79h3.47c.66,0,1,.17,1.18.54a.94.94,0,0,0,.73.47c.29,0,4.48-1.67,8.49-1.67,6.83,0,12.07,2.57,12.07,6.34v10.31C187.76,205.14,187.25,205.43,186.12,205.43Z" transform="translate(-78.13 -69.76)"/><path class="a" d="M222.32,195.19c0,.25-.32.4-.87.4H210.92c-.56,0-.89-.15-.89-.4v-1.05c0-2,2.2-3.17,6.51-3.17s5.78,1.62,5.78,3.17Zm7.81,2.09v-2.83c0-3.23-4.2-6.55-13.62-6.55-8.71,0-14.32,3.58-14.32,6.55v5.62c0,2.94,5.69,5.91,15.05,5.91,7.16,0,10.76-1.78,11.86-2.4.69-.4,1.14-.87.41-1.16l-2.5-1a2.29,2.29,0,0,0-1.88.08,24.48,24.48,0,0,1-7.89,1.3c-3.42,0-7.21-1.3-7.21-2.56v-.84c0-.42.15-.58.55-.58h16C228.84,198.83,230.13,198.29,230.13,197.28Z" transform="translate(-78.13 -69.76)"/><path class="a" d="M265.15,199.65c0,1.27-2.33,3-6.11,3s-6.5-1.75-6.5-3v-5.52c0-1.71,2.86-3.1,6.64-3.1s6,1.39,6,3.1Zm7.61.11v-5.51c0-3.53-4.9-6.2-13.61-6.2-9,0-14.29,3.11-14.29,6.2v17.58c0,.51.51.8,1.65.8h4.65c1.14,0,1.77-.29,1.77-.8v-6.24c0-.9.26-.76,1.21-.51a18.13,18.13,0,0,0,5,.74C267.86,205.82,272.76,203,272.76,199.76Z" transform="translate(-78.13 -69.76)"/><path class="a" d="M306.82,200.48c0,1.56-2.8,2.46-6.18,2.46s-6.57-.94-6.57-2.43v-1.29c0-1.34,3.24-2.63,6.61-2.63,3.78,0,6.14,1.18,6.14,2.56Zm7.39,4.23V194.32c0-3.65-4.89-6.33-13-6.33a30.22,30.22,0,0,0-5.22.52,32.37,32.37,0,0,0-4.9,1c-.83.28-1.51.47-.88.94l2.24,1.65c.66.37,1.18.05,2.06-.17a26.7,26.7,0,0,1,6.81-.76c4,0,5.39,1.81,5.64,2.65.08.29-.07.61-.4.54a44.18,44.18,0,0,0-5.46-.44c-6.95,0-14.65,2-14.65,5.23v1.15c0,3.26,7.22,5.53,14.58,5.53a21.55,21.55,0,0,0,6.38-1.16c.28,0,.53.24.8.42s.77.24.83.31h3.43C313.58,205.44,314.21,205.21,314.21,204.71Z" transform="translate(-78.13 -69.76)"/><path class="a" d="M91.67,205.83c-4.09,0-9.59-.79-13.1-3.23-.82-.58-.32-.86.21-1a19.82,19.82,0,0,1,3.49-.82c.68,0,4.06,2,9.18,2,1.12,0,5.33-.61,5.33-2.34,0-1.4-3.17-1.43-3.17-1.43l-6.79-.36c-3-.18-7.89-1-7.89-4.6,0-4.87,8.68-6,12.84-6a26.77,26.77,0,0,1,10.48,2c.69.39,0,.75-.36,1a9,9,0,0,1-2.68,1.29c-1,0-3-1.42-7-1.42-2,0-5.54.8-5.54,2.46,0,1.15,2.34,1.32,2.34,1.32l6.86.22c4.13.14,8.68,1.62,8.68,5C104.55,204.72,96,205.83,91.67,205.83Z" transform="translate(-78.13 -69.76)"/><path class="b" d="M267.62,86.37c-41.43-7.78-77.07-1.31-79.62,14.46s29,34.86,70.38,42.62S335.45,144.77,338,129,309,94.15,267.62,86.37Zm-6.22,52.35c-29.12-6.06-51.19-21.57-49.29-34.65s27.06-18.75,56.2-12.69,55.15,22.27,53.25,35.33S290.53,144.79,261.4,138.72Z" transform="translate(-78.13 -69.76)"/><path class="c" d="M271.7,97.14c-23.53,23.1-34.29,50-24.06,60.11s37.6-.45,61.11-23.56,34.28-50,24-60.1S295.19,74.05,271.7,97.14Zm32.56,32.93c-17.36,17.19-39.09,26.38-46.34,17.66s2.7-32,20.06-49.25,37.32-24.06,44.57-15.34S321.62,112.88,304.26,130.07Z" transform="translate(-78.13 -69.76)"/><path class="d" d="M275.16,140.78a122,122,0,0,1-13.76-2.06c-29.12-6.06-51.19-21.57-49.29-34.65s27.06-18.75,56.2-12.69a124.37,124.37,0,0,1,29.76,10.21l2.71-5.87a185.42,185.42,0,0,0-33.16-9.35c-41.43-7.78-77.07-1.31-79.62,14.46s29,34.86,70.38,42.62c5.18,1,10.27,1.73,15.22,2.26Z" transform="translate(-78.13 -69.76)"/><path class="a" d="M350.33,191.16a2,2,0,0,1-1.92.39,15.09,15.09,0,0,0-3.86-.37c-4,0-6.2,1.88-6.2,3.14V204.6c0,.5-.63.79-1.77.79h-4.31c-1.14,0-1.76-.29-1.76-.79V194.32c0-3.07,5.08-6.27,13.79-6.27a20,20,0,0,1,7.46,1.2c.77.29.73.4.14.87Z" transform="translate(-78.13 -69.76)"/><path class="e" d="M255,231a7.77,7.77,0,0,1-2.11,1,9.49,9.49,0,0,1-2.81.42,8.78,8.78,0,0,1-4.25-1,3.4,3.4,0,0,1-2-3.18,3.47,3.47,0,0,1,2-3.22,8.81,8.81,0,0,1,4.26-1,9.79,9.79,0,0,1,2.8.4,7.26,7.26,0,0,1,2.11,1l-2,1.08a4.49,4.49,0,0,0-2.78-.86q-3.51,0-3.56,2.55c0,1.71,1.22,2.56,3.56,2.53a4.37,4.37,0,0,0,2.78-.85Z" transform="translate(-78.13 -69.76)"/><path class="e" d="M259.44,228.23a4.58,4.58,0,0,1,.35-2,3.11,3.11,0,0,1,1.14-1.14,5.86,5.86,0,0,1,1.58-.73,9.49,9.49,0,0,1,2.57-.32,9.33,9.33,0,0,1,2.63.33,5,5,0,0,1,1.53.73,2.8,2.8,0,0,1,1.15,1.14,4.72,4.72,0,0,1,.33,2,4.59,4.59,0,0,1-.33,2,3,3,0,0,1-1.16,1.17,3.75,3.75,0,0,1-.64.35,3.6,3.6,0,0,1-.89.34,8.78,8.78,0,0,1-2.62.36,8.57,8.57,0,0,1-2.57-.36,5.63,5.63,0,0,1-1.58-.69,3.34,3.34,0,0,1-1.14-1.17A4.4,4.4,0,0,1,259.44,228.23Zm8.53,0a4.45,4.45,0,0,0-.13-1.28,1.42,1.42,0,0,0-.54-.67,2.1,2.1,0,0,0-.9-.44,4.77,4.77,0,0,0-1.32-.16,4.87,4.87,0,0,0-1.3.16,2.72,2.72,0,0,0-.92.44,1.74,1.74,0,0,0-.52.67,3.92,3.92,0,0,0-.15,1.27,3.76,3.76,0,0,0,.15,1.24,1.79,1.79,0,0,0,.52.71,3.77,3.77,0,0,0,.92.42,4.87,4.87,0,0,0,1.3.17,4.75,4.75,0,0,0,1.32-.17,2.7,2.7,0,0,0,.9-.42,1.46,1.46,0,0,0,.54-.71A4.11,4.11,0,0,0,268,228.24Z" transform="translate(-78.13 -69.76)"/><path class="e" d="M276.85,224.16h2.74V225h.06a6,6,0,0,1,3.55-1,6.72,6.72,0,0,1,3.11.72,2.42,2.42,0,0,1,1.46,2.12v5.42H285v-4.86a1.44,1.44,0,0,0-.77-1.31,3.74,3.74,0,0,0-1.94-.45,3.8,3.8,0,0,0-1.95.45,1.43,1.43,0,0,0-.78,1.31v4.86h-2.74Z" transform="translate(-78.13 -69.76)"/><path class="e" d="M294.61,224.16h2.75V225h.05a6,6,0,0,1,3.55-1,6.72,6.72,0,0,1,3.11.72,2.45,2.45,0,0,1,1.47,2.12v5.42h-2.75v-4.86a1.44,1.44,0,0,0-.77-1.31,3.7,3.7,0,0,0-1.93-.45,3.82,3.82,0,0,0-2,.45,1.42,1.42,0,0,0-.77,1.31v4.86h-2.75Z" transform="translate(-78.13 -69.76)"/><path class="e" d="M314.44,228.85a1.61,1.61,0,0,0,.95,1.5,4.61,4.61,0,0,0,2.32.52,5.67,5.67,0,0,0,3-.8l2,1a8.92,8.92,0,0,1-4.93,1.32,12.09,12.09,0,0,1-2.11-.19,6.4,6.4,0,0,1-1-.28,5.58,5.58,0,0,1-1-.37,3.75,3.75,0,0,1-1.41-1.27,3.31,3.31,0,0,1-.59-2,3.66,3.66,0,0,1,.51-2,3.87,3.87,0,0,1,1.32-1.29,6.09,6.09,0,0,1,1.83-.69,9.68,9.68,0,0,1,2-.22,8.2,8.2,0,0,1,4,.92A2.87,2.87,0,0,1,323,227.5v1.35Zm5.78-1.35a1.71,1.71,0,0,0-.85-1.44,4,4,0,0,0-2-.47,3.93,3.93,0,0,0-2,.47,1.79,1.79,0,0,0-.86,1.44Z" transform="translate(-78.13 -69.76)"/><path class="e" d="M339.17,231a7.77,7.77,0,0,1-2.11,1,9.49,9.49,0,0,1-2.81.42,8.78,8.78,0,0,1-4.25-1,3.4,3.4,0,0,1-1.95-3.18A3.47,3.47,0,0,1,330,225a8.8,8.8,0,0,1,4.25-1,9.81,9.81,0,0,1,2.81.4,7.26,7.26,0,0,1,2.11,1l-2,1.08a4.49,4.49,0,0,0-2.78-.86q-3.51,0-3.56,2.55c0,1.71,1.22,2.56,3.56,2.53a4.37,4.37,0,0,0,2.78-.85Z" transform="translate(-78.13 -69.76)"/><path class="e" d="M344.42,221.67h2.75v2.49h2v1.25h-2v4.76c0,.41.31.61,1,.6h1v1.54h-1.43a4.73,4.73,0,0,1-2.37-.53,1.61,1.61,0,0,1-.95-1.48v-4.89H343v-1.25h1.38Z" transform="translate(-78.13 -69.76)"/></svg>