<svg xmlns="http://www.w3.org/2000/svg" viewBox="0 0 120 120">
  <defs>
    <style>
      .cls-1 {
        fill: none;
      }

      .cls-2 {
        fill: #fff;
      }
    </style>
  </defs>
  <title>outillage-family</title>
  <g id="Calque_2" data-name="Calque 2">
    <g id="Calque_1-2" data-name="Calque 1">
      <g id="Calque_2-2" data-name="Calque 2">
        <g id="Calque_1-2-2" data-name="Calque 1-2">
          <rect class="cls-1" width="120" height="120"/>
        </g>
      </g>
      <g>
        <path class="cls-2" d="M81,30.88a4.17,4.17,0,0,0-3.2-3.64s-28.11-8.7-41-10.29l-.75-.09c-1.61-.25-1.68,1.37-2.61,2.84l-4-.8c-.5,1-3.68,8-3.28,14.69l4.14.92A6.63,6.63,0,0,0,33,39.17,2.62,2.62,0,0,1,34.34,42c-.65,0-3.4-.49-3.69,0S34,43.47,34,43.47c.39.25-2.14,6.17-3.73,22.42l5.38.86c4-16.16,3.5-22.24,4-22.23s3.61.55,3.77,0-3.53-1.45-3.53-1.45c-.36-1.41,3.35-.73,3.49-.7,6.89,1.57,13.76,2.9,15.13,3.12l.1,0c.13.7.25,1.8.34,2.91a3.21,3.21,0,0,0,.16,1.34A13.72,13.72,0,0,0,61,51.37L61.49,50a7.1,7.1,0,0,0,.09-1.68c-.05-.72-.13-1.63-.21-2.31l.93.13a20.94,20.94,0,0,1,.31,2.41c.15,2-1.06,4-.92,6.65s.56,5.66.69,7.41c.26,3.44-.84,4.61-.84,4.61.26,2.7,5.13,3.45,7.75,3.6h.35l.49,0c3-.29,5.48-1.71,5.18-4.69a13.89,13.89,0,0,1-.78-3.64c-.24-2.35-.08-4.11-.24-7.23s-.1-2.69-.18-5c0-1.22.12-3,1.63-3.27,2.81-.26,4.49-6,5.08-9.36A20.68,20.68,0,0,0,81,30.88ZM77.83,37C77.3,40,76.5,44.51,74,44.51c-4.14,0-2.86,9.57-2.79,10.85s.08,2.36.09,3.38c0,1.31,0,2.55.17,4a18.72,18.72,0,0,0,.78,3.92A.51.51,0,0,1,72,67a4.57,4.57,0,0,1-2.22.69h-.38A13.77,13.77,0,0,1,65,66.87a12.39,12.39,0,0,0,.4-4.54c-.05-.71-.15-1.55-.25-2.52-.16-1.5-.35-3.21-.43-4.82a9.81,9.81,0,0,1,.42-2.84,12.06,12.06,0,0,0,.49-3.88,24.05,24.05,0,0,0-.36-2.77l-.42-2.13-2.16-.29L61.86,43l-2-.3c-2.22-.34-23.89-5.3-25.61-5.68-.83-.18-1.31-1.15-1.53-2h0c0-.29,0-.58,0-.88a43,43,0,0,1,2.8-13.27c.1-.22.22-.45.34-.67a1.58,1.58,0,0,1,.67-.24,2.89,2.89,0,0,1,.44,0c12.39,1.91,39.86,10.08,40,10.13.92.28,1,.66,1.08,1.09A17.56,17.56,0,0,1,77.83,37Z"/>
        <path class="cls-2" d="M29.13,18.89l-5,4-15-3.56L6.85,20.79,8.22,23.3l15,3.56,2.72,6.41C25.49,27.18,28.51,20.24,29.13,18.89Zm-19,3.3L9.23,22l-.37-.67.59-.38,1.43.34Zm2.37.57-1.06-.25.74-.92,1.07.25Zm2.57.61-1.26-.3.74-.92,1.27.3Zm2.55.61-1.24-.3.74-.92,1.25.3Zm2.54.6-1.22-.29.74-.92,1.2.29Zm3.36.8-2-.47.69-.93,1.52.36Z"/>
      </g>
      <path class="cls-2" d="M92.69,60.6a2.13,2.13,0,0,1,1.9,2.18l-.37,13.92c.12.88.34,1.18.57,1.21.39,0,.82-.71.82-.71L98.9,66a2.13,2.13,0,0,1,2.28-1.52,2.21,2.21,0,0,1,.37.07A2.14,2.14,0,0,1,103,67.17l-3.23,11h0s-.13,1.67.41,1.73c.19,0,.45-.14.83-.62h0l4.14-6.87a2.13,2.13,0,1,1,3.35,2.65l-7.39,12a33.46,33.46,0,0,1-4.29,9.64l-.47,3.84L84.07,99.21l.41-4a13,13,0,0,1-3.87-5.49L74.21,83A2.13,2.13,0,0,1,77.31,80L81,83.64a2.48,2.48,0,0,0,1.37.73c1.22.13,2.34-1.31,1.25-7.05L81.43,65.91a2.13,2.13,0,0,1,1.7-2.5,2.22,2.22,0,0,1,.63,0,2.14,2.14,0,0,1,1.86,1.72l2.16,11.31a2,2,0,0,1,.09.31c.17.74.73,1.87,1.23,1.93s.73-.53.85-2.35l.36-13.64a2.13,2.13,0,0,1,2.19-2.08h.18M93,57.82l-.41,0a4.93,4.93,0,0,0-5.06,4.79v0a4.9,4.9,0,0,0-3.46-2,5,5,0,0,0-1.46.06,4.93,4.93,0,0,0-3.92,5.77l2.18,11.41c.16.83.25,1.51.32,2.07L79.3,78.07a4.93,4.93,0,0,0-3-1.46h0a4.93,4.93,0,0,0-4.11,8.29l6.05,6.37a17.76,17.76,0,0,0,3.32,5l-.27,2.61-1.05,9.76L83,109l12.28,1.35,2.74.3,1.11-9.74.39-3.17a36.62,36.62,0,0,0,4.19-9.53l7.11-11.56A4.93,4.93,0,0,0,105.36,69l.31-1.06a4.93,4.93,0,0,0-8.31-4.78v-.33a5,5,0,0,0-4.38-5Z"/>
    </g>
  </g>
</svg>
