<svg xmlns="http://www.w3.org/2000/svg" viewBox="0 0 120 120">
  <defs>
    <style>
      .cls-1 {
        fill: none;
      }

      .cls-2 {
        fill: #fff;
      }
    </style>
  </defs>
  <title>securite-family</title>
  <g id="Calque_2" data-name="Calque 2">
    <g id="Calque_1-2" data-name="Calque 1">
      <g id="Calque_2-2" data-name="Calque 2">
        <g id="Calque_1-2-2" data-name="Calque 1-2">
          <g id="Calque_2-2-2" data-name="Calque 2-2">
            <g id="Calque_1-2-2-2" data-name="Calque 1-2-2">
              <rect class="cls-1" width="120" height="120"/>
            </g>
          </g>
          <g>
            <rect class="cls-2" x="71.2" y="20.8" width="7.3" height="10.78"/>
            <rect class="cls-2" x="82.33" y="20.8" width="7.3" height="10.78"/>
            <rect class="cls-2" x="93.23" y="20.8" width="7.3" height="10.78"/>
            <rect class="cls-2" x="71.2" y="37.34" width="7.3" height="10.78"/>
            <rect class="cls-2" x="82.33" y="37.34" width="7.3" height="10.78"/>
            <rect class="cls-2" x="93.23" y="37.34" width="7.3" height="10.78"/>
            <polygon class="cls-2" points="78.5 63.33 78.5 54.39 71.2 54.39 71.2 62.03 78.5 63.33"/>
            <polygon class="cls-2" points="89.63 65.17 82.33 63.74 82.33 54.39 89.63 54.39 89.63 65.17"/>
            <rect class="cls-2" x="93.23" y="54.39" width="7.3" height="10.78"/>
            <rect class="cls-2" x="93.23" y="69.81" width="7.3" height="10.78"/>
          </g>
          <path class="cls-2" d="M48.78,69.49a.09.09,0,0,0-.11.07h0v27a.09.09,0,0,0,.09.09h0l34.67-2.38a.07.07,0,0,0,.06-.08h0V73.84a.08.08,0,0,0-.06-.08ZM82.39,91v2.11L50.6,94.86V72.52L82.39,75.8Z"/>
          <path class="cls-2" d="M54.88,97.8l-5.44.44a.8.8,0,0,0-.77.73v5.7a.62.62,0,0,0,.65.59l.12,0,5.44-.71a.79.79,0,0,0,.7-.72V98.38a.61.61,0,0,0-.63-.59ZM49.54,99l5.23-.45v3.91l-5.23.6Z"/>
          <path class="cls-2" d="M63.19,97.13l-4.78.38a.72.72,0,0,0-.67.68v5.33a.56.56,0,0,0,.57.55h.1l4.78-.62a.71.71,0,0,0,.62-.68V97.68a.55.55,0,0,0-.55-.55ZM58.5,98.22l4.6-.39v3.67l-4.6.53v-3.8Z"/>
          <path class="cls-2" d="M70.54,96.54l-4.24.34a.65.65,0,0,0-.59.63v5a.51.51,0,0,0,.5.52h.09l4.24-.55a.65.65,0,0,0,.55-.63V97.06a.5.5,0,0,0-.48-.52Zm-4.15,1,4.07-.35v3.46l-4.07.47Z"/>
          <polygon class="cls-2" points="110.94 9.71 72.21 9.71 65.06 14.34 65.06 43.42 52.59 34.8 52.44 34.58 52.35 34.63 52.27 34.58 52.12 34.8 6.49 66.36 9.98 71.4 15.76 67.41 15.76 98.06 35.39 98.06 35.39 95.39 18.77 95.39 18.77 65.32 52.35 42.08 65.06 50.87 65.06 61.14 67.08 61.48 67.08 61.29 67.08 16.22 104.2 16.22 104.2 97.57 97 97.57 97 84.35 93.09 84.35 93.09 98.41 93.06 99.45 106.23 99.45 106.23 99.22 111 93.34 110.94 9.71"/>
        </g>
      </g>
      <path class="cls-2" d="M84.32,68.07l-37.1-6.6c-4.37-.78-8.13,1.67-8.13,5.51v39.88c0,3.83,3.76,6.28,8.13,5.51l37.1-6.6c2.28-.41,4.06-2.83,4.06-5.41V73.48C88.38,70.9,86.6,68.48,84.32,68.07ZM86,85.8v14.89a2.13,2.13,0,0,1-1.64,2.14l-37.1,5.56c-1.69.26-3.1-.72-3.1-2.18V67.65c0-1.46,1.4-2.44,3.1-2.19L84.32,71A2.13,2.13,0,0,1,86,73.16Z"/>
    </g>
  </g>
</svg>
