<svg xmlns="http://www.w3.org/2000/svg" viewBox="-531.893 1737.683 58.584 35.599">
  <defs>
    <style>
      .cls-1 {
        fill: #fff;
      }
    </style>
  </defs>
  <g id="Groupe_516" data-name="Groupe 516" transform="translate(-1278 863)">
    <path id="Tracé_1035" data-name="Tracé 1035" class="cls-1" d="M168.361,17.935c-16.15-3.032-30.041-.508-31.035,5.64s11.292,13.589,27.436,16.614S194.8,40.7,195.8,34.556,184.5,20.97,168.361,17.935Zm-2.424,20.406c-11.351-2.362-19.942-8.413-19.213-13.508s10.551-7.307,21.905-4.957,21.5,8.678,20.762,13.773-12.1,7.061-23.454,4.7Z" transform="translate(608.838 863.222)"/>
    <path id="Tracé_1036" data-name="Tracé 1036" class="cls-1" d="M218.1,10.671c-9.173,9.005-13.364,19.493-9.376,23.429s14.645-.178,23.822-9.183,13.361-19.49,9.37-23.429S227.264,1.666,218.1,10.671ZM230.8,23.509c-6.768,6.7-15.234,10.283-18.073,6.883s1.063-12.492,7.824-19.2,14.548-9.379,17.375-5.98S237.562,16.8,230.8,23.506Z" transform="translate(560.685 874.689)"/>
  </g>
</svg>
