<svg xmlns="http://www.w3.org/2000/svg" xmlns:xlink="http://www.w3.org/1999/xlink" viewBox="0 0 343.04 205.94"><defs><style>.cls-1{fill:#24318a;}.cls-2{fill:url(#linear-gradient);}.cls-3{fill:url(#linear-gradient-2);}.cls-4{fill:url(#linear-gradient-3);}</style><linearGradient id="linear-gradient" x1="-3647.1" y1="-1943.87" x2="-3550.6" y2="-1925.37" gradientTransform="translate(7296.37 3854.74) scale(1.96)" gradientUnits="userSpaceOnUse"><stop offset="0" stop-color="#24318a"/><stop offset="0.16" stop-color="#22378f"/><stop offset="0.38" stop-color="#1c499e"/><stop offset="0.63" stop-color="#1267b6"/><stop offset="0.91" stop-color="#0590d7"/><stop offset="1" stop-color="#009ee3"/></linearGradient><linearGradient id="linear-gradient-2" x1="-2418.56" y1="-2591.43" x2="-2441.49" y2="-2569.91" gradientTransform="translate(10021.23 10403.09) scale(4.01)" gradientUnits="userSpaceOnUse"><stop offset="0" stop-color="#24318a"/><stop offset="0.15" stop-color="#22378f"/><stop offset="0.36" stop-color="#1d499d"/><stop offset="0.6" stop-color="#1467b5"/><stop offset="0.87" stop-color="#0790d5"/><stop offset="1" stop-color="#00a7e7"/></linearGradient><linearGradient id="linear-gradient-3" x1="-3647.1" y1="-1943.87" x2="-3550.6" y2="-1925.37" xlink:href="#linear-gradient"/></defs><title>sonepar-france-logo</title><g id="Calque_2" data-name="Calque 2"><g id="Calque_1-2" data-name="Calque 1"><path class="cls-1" d="M220.6,190.56a1,1,0,0,1-1.19.25,9.75,9.75,0,0,0-4.17-1c-1.75,0-2.72,1-2.72,2v.83c0,.19.15.3.41.3h5.17c.52,0,.82.22.82.61v1.27c0,.38-.3.61-.82.61h-5.17c-.26,0-.41.11-.41.3v9.34c0,.39-.3.61-.82.61h-2.34c-.52,0-.82-.22-.82-.61v-9.34c0-.19-.15-.3-.41-.3h-.67c-.52,0-.82-.22-.82-.61v-1.27c0-.39.3-.61.82-.61h.67c.26,0,.41-.11.41-.3v-.83c0-2.45,2.68-4.6,6.7-4.6a12.7,12.7,0,0,1,6,1.43c.37.22.48.55.22.88Z"/><path class="cls-1" d="M239.24,196a1,1,0,0,1-1.19.25,9.75,9.75,0,0,0-4.17-1c-1.75,0-2.72,1-2.72,2v7.8c0,.39-.3.61-.82.61H228c-.52,0-.82-.22-.82-.61v-7.8c0-2.45,2.68-4.6,6.7-4.6a12.7,12.7,0,0,1,6,1.43c.37.22.48.55.22.88Z"/><path class="cls-1" d="M255.54,201.34c0,1-1,2-2.79,2s-2.79-1-2.79-2,1-2,2.79-2S255.54,200.35,255.54,201.34Zm3.91,3.72v-7.8c0-2.45-2.68-4.6-6.7-4.6a12.75,12.75,0,0,0-4.91,1c-.41.16-.67.52-.41.83l1,1.19c.26.33.52.3.93.14a9.56,9.56,0,0,1,3.39-.66c1.75,0,3.05,1.29,3.05,1.9,0,.14-.19.36-.37.3a10.69,10.69,0,0,0-2.64-.58c-4,0-6.7,2.12-6.7,4.57s2.68,4.6,6.7,4.6a8.26,8.26,0,0,0,3.24-.63.44.44,0,0,1,.52.11.86.86,0,0,0,.67.25h1.45C259.15,205.66,259.45,205.44,259.45,205.06Z"/><path class="cls-1" d="M280.7,205.66h-2.35c-.52,0-.82-.22-.82-.61v-7.8c0-1-1-2-2.72-2s-2.72,1-2.72,2v7.8c0,.39-.3.61-.82.61h-2.34c-.52,0-.82-.22-.82-.61V193.54c0-.39.3-.61.82-.61h1.45a.86.86,0,0,1,.67.25.44.44,0,0,0,.52.11,8.23,8.23,0,0,1,3.24-.63c4,0,6.7,2.15,6.7,4.6v7.8C281.52,205.44,281.22,205.66,280.7,205.66Z"/><path class="cls-1" d="M297.26,205.94c-4,0-6.7-2.15-6.7-4.6v-4.08c0-2.45,2.68-4.6,6.7-4.6,3.31,0,5.4,1.41,6.1,2.76a.55.55,0,0,1-.22.83l-1.75.85a.92.92,0,0,1-1.12-.14,3.46,3.46,0,0,0-3-1.68c-1.75,0-2.72,1-2.72,2v4.08c0,1,1,2,2.72,2a3.46,3.46,0,0,0,3-1.68.92.92,0,0,1,1.12-.14l1.75.85a.55.55,0,0,1,.22.83C302.66,204.54,300.57,205.94,297.26,205.94Z"/><path class="cls-1" d="M321.78,197.84c0,.19-.15.3-.41.3h-4.84c-.26,0-.41-.11-.41-.3v-.52c0-1,1-2.12,2.83-2.12s2.83,1.16,2.83,2.12Zm3.87,1.49v-2.07c0-2.45-2.68-4.6-6.7-4.6s-6.7,2.15-6.7,4.6v4.08c0,2.45,2.68,4.6,6.7,4.6,3.31,0,5.66-1.21,6.36-2.56a.58.58,0,0,0-.22-.83l-1.27-.74a.89.89,0,0,0-1.12.14A4.85,4.85,0,0,1,319,203.4a2.46,2.46,0,0,1-2.72-2.12v-.5c0-.19.15-.3.41-.3H324C325.06,200.48,325.66,200.1,325.66,199.33Z"/><path class="cls-1" d="M74.09,162.47c0,1.59-3.17,4.05-7.9,4.05s-7.72-2.15-7.72-4.05V155.2c0-1.13,3-3.41,7.72-3.41s7.9,2.41,7.9,3.41Zm9.66,0V155.2c0-2.72-5.83-7.31-17.4-7.31-11.9,0-17.49,4.9-17.49,7.31v7.26c0,3.58,6.6,7.71,17.49,7.71S83.75,166.51,83.75,162.47Z"/><path class="cls-1" d="M135.09,169.73h-5.56c-1.42,0-2.21-.36-2.21-1V156.38c0-2.14-2.53-4.36-7.26-4.36s-7.72,2.22-7.72,4.63l0,12.07c0,.64-.78,1-2.2,1h-5.41c-1.43,0-2.21-.36-2.21-1v-19c0-.64.78-1,2.21-1H109a1.46,1.46,0,0,1,1.47.68,1.18,1.18,0,0,0,.91.59c.37,0,5.61-2.1,10.62-2.1,8.54,0,15.1,3.22,15.1,7.94v12.89C137.15,169.37,136.51,169.73,135.09,169.73Z"/><path class="cls-1" d="M180.39,156.91c0,.32-.41.5-1.1.5H166.12c-.7,0-1.11-.19-1.11-.5V155.6c0-2.53,2.75-4,8.14-4s7.24,2,7.24,4Zm9.76,2.61V156c0-4-5.26-8.19-17-8.19-10.89,0-17.91,4.47-17.91,8.19v7c0,3.67,7.11,7.4,18.83,7.4,9,0,13.46-2.24,14.83-3,.87-.51,1.43-1.09.51-1.46l-3.12-1.23a2.79,2.79,0,0,0-2.35.1,30.75,30.75,0,0,1-9.87,1.62c-4.28,0-9-1.62-9-3.2V162.2c0-.53.18-.72.69-.72h20C188.54,161.47,190.15,160.8,190.15,159.53Z"/><path class="cls-1" d="M234,162.49c0,1.59-2.92,3.78-7.64,3.78s-8.13-2.19-8.13-3.78v-6.9c0-2.14,3.58-3.88,8.31-3.88s7.47,1.74,7.47,3.88Zm9.52.14v-6.89c0-4.41-6.14-7.75-17-7.75-11.3,0-17.87,3.89-17.87,7.75v22c0,.64.63,1,2.06,1h5.83c1.42,0,2.21-.36,2.21-1v-7.81c0-1.13.33-1,1.52-.64a22.66,22.66,0,0,0,6.26.92C237.35,170.21,243.49,166.66,243.49,162.63Z"/><path class="cls-1" d="M286.1,163.53c0,1.95-3.5,3.07-7.73,3.07s-8.22-1.17-8.22-3V162c0-1.67,4-3.29,8.27-3.29,4.73,0,7.69,1.48,7.69,3.21Zm9.24,5.29v-13c0-4.58-6.11-7.92-16.31-7.92a38.34,38.34,0,0,0-6.53.65,41,41,0,0,0-6.13,1.3c-1,.36-1.89.58-1.1,1.18l2.81,2.06c.82.46,1.47.06,2.57-.2a33.29,33.29,0,0,1,8.52-1c5.06,0,6.74,2.26,7.06,3.31.09.37-.1.77-.51.68a54.81,54.81,0,0,0-6.83-.55c-8.69,0-18.33,2.46-18.33,6.54v1.44c0,4.08,9,6.93,18.24,6.93a26.82,26.82,0,0,0,8-1.46c.35,0,.67.31,1,.53s1,.3,1,.39h4.29C294.55,169.74,295.33,169.45,295.33,168.82Z"/><path class="cls-1" d="M340.52,151.87a2.45,2.45,0,0,1-2.4.49,19.42,19.42,0,0,0-4.83-.46c-5,0-7.76,2.35-7.76,3.94v12.85c0,.63-.79,1-2.21,1h-5.39c-1.42,0-2.2-.36-2.2-1V155.83c0-3.85,6.35-7.85,17.25-7.85a24.7,24.7,0,0,1,9.33,1.51c1,.37.92.5.18,1.09Z"/><path class="cls-1" d="M16.94,170.22c-5.12,0-12-1-16.39-4-1-.72-.4-1.07.27-1.26a25,25,0,0,1,4.37-1c.84,0,5.07,2.57,11.48,2.57,1.4,0,6.66-.77,6.66-2.93,0-1.75-4-1.78-4-1.78l-8.49-.46C7.1,161.07,1,160,1,155.54c0-6.1,10.86-7.54,16.07-7.54a33.67,33.67,0,0,1,13.11,2.52c.86.49,0,.94-.45,1.21s-2.5,1.62-3.36,1.62c-1.21,0-3.77-1.77-8.75-1.77-2.47,0-6.94,1-6.94,3.07,0,1.44,2.94,1.65,2.94,1.65l8.57.27c5.17.18,10.86,2,10.86,6.29C33,168.84,22.37,170.22,16.94,170.22Z"/><path class="cls-2" d="M237.05,20.77c-51.83-9.73-96.41-1.63-99.6,18.1s36.24,43.61,88.05,53.32,96.41,1.65,99.6-18.08S288.86,30.51,237.05,20.77Zm-7.78,65.49c-36.43-7.58-64-27-61.66-43.35S201.47,19.46,237.91,27s69,27.85,66.63,44.2S265.71,93.86,229.27,86.27Z"/><path class="cls-3" d="M242.15,34.26c-29.44,28.9-42.89,62.56-30.09,75.19s47-.57,76.45-29.47,42.88-62.55,30.07-75.19S271.55,5.36,242.15,34.26Zm40.74,41.2c-21.72,21.5-48.89,33-58,22.09S228.3,57.46,250,35.93s46.69-30.1,55.76-19.19S304.6,53.94,282.89,75.45Z"/><path class="cls-4" d="M246.48,88.85a155.22,155.22,0,0,1-17.21-2.58c-36.43-7.58-64-27-61.66-43.35S201.47,19.46,237.91,27a155.51,155.51,0,0,1,37.24,12.77l3.4-7.34a232.71,232.71,0,0,0-41.49-11.7c-51.83-9.73-96.41-1.63-99.6,18.1s36.24,43.61,88.05,53.32c6.48,1.22,12.84,2.16,19,2.83Z"/></g></g></svg>