<svg xmlns="http://www.w3.org/2000/svg" viewBox="0 0 120 72.03">
  <defs>
    <style>
      .cls-1 {
        fill: #fff;
      }
    </style>
  </defs>
  <title>sonepar-connect-white-logo</title>
  <g id="Calque_2" data-name="Calque 2">
    <g id="Calque_1-2" data-name="Calque 1">
      <g>
        <path class="cls-1" d="M857.08,740.26a3.78,3.78,0,0,1-4.63,1,37.86,37.86,0,0,0-16.19-3.85c-6.8,0-10.56,4-10.56,7.7v3.22c0,.74.58,1.17,1.59,1.17h20.1c2,0,3.18.86,3.18,2.36v4.93c0,1.49-1.15,2.35-3.18,2.35h-20.1c-1,0-1.59.43-1.59,1.18v36.29c0,1.5-1.15,2.35-3.18,2.35h-9.11c-2,0-3.18-.85-3.18-2.35V760.28c0-.75-.58-1.18-1.59-1.18H806c-2,0-3.18-.86-3.18-2.35v-4.93c0-1.5,1.16-2.36,3.18-2.36h2.6c1,0,1.59-.43,1.59-1.17v-3.22c0-9.52,10.41-17.87,26-17.87,9.83,0,18.79,2.89,23.27,5.56,1.45.86,1.88,2.14.87,3.43Z"/>
        <path class="cls-1" d="M929.51,761.46a3.77,3.77,0,0,1-4.62,1,37.88,37.88,0,0,0-16.19-3.86c-6.8,0-10.56,4-10.56,7.71v30.3c0,1.5-1.15,2.35-3.18,2.35h-9.11c-2,0-3.18-.85-3.18-2.35v-30.3c0-9.52,10.41-17.88,26-17.88,9.83,0,18.79,2.9,23.27,5.57,1.45.86,1.88,2.14.87,3.43Z"/>
        <path class="cls-1" d="M992.84,782.11c0,3.86-3.9,7.93-10.84,7.93s-10.85-4.07-10.85-7.93,3.91-7.81,10.85-7.81S992.84,778.26,992.84,782.11ZM1008,796.57v-30.3c0-9.52-10.41-17.88-26-17.88a49.55,49.55,0,0,0-19.09,3.86c-1.59.64-2.6,2-1.59,3.21l3.76,4.6c1,1.29,2,1.18,3.61.54A37.25,37.25,0,0,1,981.86,758c6.79,0,11.85,5,11.85,7.39,0,.53-.72,1.39-1.45,1.17-2.45-.75-7.08-2.25-10.26-2.25-15.62,0-26,8.25-26,17.77S966.38,800,982,800a32.12,32.12,0,0,0,12.57-2.46,1.71,1.71,0,0,1,2,.42,3.35,3.35,0,0,0,2.61,1h5.63C1006.86,798.92,1008,798.07,1008,796.57Z"/>
        <path class="cls-1" d="M1090.58,798.92h-9.11c-2,0-3.18-.85-3.18-2.35v-30.3c0-3.75-3.76-7.71-10.56-7.71s-10.55,4-10.55,7.71v30.3c0,1.5-1.15,2.35-3.18,2.35h-9.11c-2,0-3.18-.85-3.18-2.35V751.82c0-1.5,1.16-2.36,3.18-2.36h5.64a3.29,3.29,0,0,1,2.6,1,1.75,1.75,0,0,0,2,.43,32,32,0,0,1,12.57-2.47c15.62,0,26,8.36,26,17.88v30.3C1093.76,798.07,1092.6,798.92,1090.58,798.92Z"/>
        <path class="cls-1" d="M1154.92,800c-15.62,0-26-8.35-26-17.89V766.27c0-9.52,10.41-17.88,26-17.88,12.87,0,21,5.47,23.71,10.71a2.14,2.14,0,0,1-.86,3.21l-6.8,3.32a3.58,3.58,0,0,1-4.34-.54c-2.75-3.42-5.35-6.53-11.71-6.53-6.79,0-10.56,4-10.56,7.71v15.84c0,3.75,3.77,7.72,10.56,7.72,6.36,0,9-3.11,11.71-6.54a3.57,3.57,0,0,1,4.34-.53l6.8,3.32a2.14,2.14,0,0,1,.86,3.21C1175.89,794.54,1167.79,800,1154.92,800Z"/>
        <path class="cls-1" d="M1250.2,768.52c0,.75-.58,1.18-1.59,1.18h-18.8c-1,0-1.59-.43-1.59-1.18v-2c0-3.74,4-8.24,11-8.24s11,4.5,11,8.24Zm15,5.78v-8c0-9.52-10.41-17.88-26-17.88s-26,8.36-26,17.88v15.84c0,9.54,10.4,17.89,26,17.89,12.87,0,22-4.72,24.72-10a2.26,2.26,0,0,0-.86-3.22l-4.92-2.88a3.46,3.46,0,0,0-4.34.53c-2.74,3.43-8.24,5.67-14.6,5.67-6.79,0-10.55-4.49-10.55-8.24V780c0-.74.58-1.17,1.59-1.17h28.62C1262.92,778.8,1265.24,777.3,1265.24,774.3Z"/>
        <path class="cls-1" d="M287.86,631.09c0,6.19-12.3,15.75-30.7,15.75s-30-8.34-30-15.75V602.88c0-4.41,11.64-13.27,30-13.27s30.7,9.38,30.7,13.27Zm37.53,0V602.88c0-10.58-22.64-28.4-67.62-28.4-46.25,0-68,19-68,28.4v28.21c0,13.9,25.65,29.95,68,29.95S325.39,646.8,325.39,631.09Z"/>
        <path class="cls-1" d="M524.87,659.3H503.28c-5.53,0-8.58-1.4-8.58-3.89V607.46c0-8.3-9.83-16.92-28.2-16.92s-30,8.62-30,18l-.18,46.89c0,2.49-3,3.89-8.56,3.89h-21c-5.54,0-8.59-1.4-8.59-3.89V581.55c0-2.49,3.05-3.88,8.59-3.88h16.88c3.2,0,4.65.87,5.72,2.64a4.58,4.58,0,0,0,3.55,2.3c1.43,0,21.79-8.14,41.25-8.14,33.21,0,58.69,12.53,58.69,30.85v50.09C532.85,657.9,530.38,659.3,524.87,659.3Z"/>
        <path class="cls-1" d="M700.84,609.51c0,1.23-1.6,2-4.27,2H645.4c-2.7,0-4.31-.73-4.31-2V604.4c0-9.84,10.7-15.37,31.63-15.37,21.28,0,28.12,7.84,28.12,15.37Zm37.93,10.16V605.93c0-15.68-20.42-31.81-66.19-31.81-42.32,0-69.58,17.36-69.58,31.81v27.32c0,14.27,27.62,28.75,73.15,28.75,34.8,0,52.29-8.7,57.61-11.68,3.39-2,5.56-4.24,2-5.66l-12.13-4.78a10.81,10.81,0,0,0-9.12.39c-5,2.09-21.21,6.28-38.34,6.28-16.62,0-35.06-6.28-35.06-12.41V630c0-2.06.72-2.8,2.69-2.8h77.85C732.51,627.24,738.77,624.6,738.77,619.67Z"/>
        <path class="cls-1" d="M909,631.19c0,6.18-11.33,14.7-29.69,14.7s-31.6-8.52-31.6-14.7V604.38c0-8.29,13.89-15.06,32.28-15.06s29,6.77,29,15.06Zm37,.54V604.94c0-17.12-23.83-30.11-66.17-30.11-43.92,0-69.43,15.09-69.43,30.11v85.48c0,2.47,2.44,3.86,8,3.86H841c5.53,0,8.58-1.39,8.58-3.86V660.09c0-4.39,1.27-3.72,5.89-2.47a88.37,88.37,0,0,0,24.34,3.55C922.16,661.17,946,647.4,946,631.73Z"/>
        <path class="cls-1" d="M1111.54,635.24c0,7.57-13.6,12-30,12-17,0-32-4.57-32-11.78v-6.28c0-6.5,15.72-12.8,32.12-12.8,18.39,0,29.85,5.76,29.85,12.47Zm35.89,20.55V605.32c0-17.78-23.74-30.78-63.37-30.78a149.57,149.57,0,0,0-25.37,2.52c-8.93,1.23-19.87,3.64-23.81,5s-7.32,2.28-4.28,4.58l10.91,8c3.2,1.81,5.71.25,10-.79a129.13,129.13,0,0,1,33.09-3.69c19.65,0,26.2,8.79,27.43,12.86.37,1.42-.38,3-2,2.63-1.93-.54-18-2.14-26.52-2.14-33.77,0-71.21,9.54-71.21,25.41v5.58c0,15.86,35.13,26.91,70.85,26.91,17.12,0,29.39-5.66,31-5.66,1.38,0,2.6,1.19,3.9,2.06.8.58,3.74,1.18,4.07,1.51h16.67C1144.39,659.36,1147.43,658.24,1147.43,655.79Z"/>
        <path class="cls-1" d="M1323,589.92c-3.79,3-5.93,2.42-9.33,1.9-4.79-.74-6.52-1.8-18.75-1.8-19.44,0-30.15,9.14-30.15,15.3v49.92c0,2.46-3.08,3.84-8.61,3.84h-20.94c-5.52,0-8.54-1.38-8.54-3.84V605.32c0-15,24.67-30.51,67-30.51,21.41,0,32.32,4.46,36.25,5.85,3.76,1.43,3.57,2,.7,4.24Z"/>
        <path class="cls-1" d="M65.8,661.23c-19.89,0-46.6-3.82-63.7-15.7-4-2.82-1.54-4.16,1-4.89,2.82-.86,13.26-4,17-4,3.27,0,19.7,10,44.62,10,5.43,0,25.89-3,25.89-11.4,0-6.79-15.41-6.92-15.41-6.92l-33-1.77c-14.66-.85-38.37-5.06-38.37-22.34,0-23.7,42.2-29.3,62.43-29.3,26.17,0,46.94,7.68,50.93,9.8,3.33,1.89,0,3.63-1.76,4.69-1.36.85-9.72,6.29-13,6.29-4.7,0-14.66-6.88-34-6.88-9.6,0-26.94,3.88-26.94,11.93,0,5.59,11.4,6.43,11.4,6.43l33.31,1.05c20.07.68,42.21,7.88,42.21,24.43C128.4,655.85,86.89,661.23,65.8,661.23Z"/>
        <g>
          <g>
            <path class="cls-1" d="M945.2,368.62c17.16-2.75,36.82-10,57.42-21.11a587.18,587.18,0,0,1-112.43-12.39C748.64,305.65,641.41,230.3,650.64,166.72S782.17,75.6,923.73,105.06c92.1,19.19,177.77,59.24,223.91,102.33A246.26,246.26,0,0,0,1166.8,167c-61.64-36.32-148.26-67.84-246.4-86.28C719.05,42.89,545.87,74.37,533.47,151s140.77,169.39,342,207.12C899.21,362.57,922.5,366,945.2,368.62Z"/>
            <path class="cls-1" d="M1225.91,210.43a668.68,668.68,0,0,1-43,57.36,47.24,47.24,0,0,1-.32,9c-3.44,23.68-25.3,41.93-58.67,54q-23.78,22.72-48.15,42.42c104.9-5.7,178.77-36.2,186.7-85.26C1266.5,263,1252.91,236.33,1225.91,210.43Z"/>
          </g>
          <path class="cls-1" d="M1237.11,18.61C1195.53-22.41,1095.8,6.73,997.48,83q15.6,4.09,30.69,8.56C1095.26,44.91,1160,32.08,1187.38,65c35.31,42.42-4.54,144.52-88.91,228.11S908.53,421.3,873.24,378.92a43.22,43.22,0,0,1-4.7-7.12q-32.37-6.21-63.08-14.08c-3.31,28.49,2.22,52,17.86,67.45,49.8,49.12,182.75-2.2,297-114.46S1286.89,67.7,1237.11,18.61Z"/>
          <path class="cls-1" d="M972.74,137.16q-14.24-4.28-29-7.86c-1.76,1.7-3.54,3.38-5.3,5.1-55.21,54.22-95.82,112.72-117.44,164.22,13.66,4.8,28,9.15,42.93,13,11.73-51.37,50.85-117.1,104.9-170.69C970.17,139.63,971.45,138.41,972.74,137.16Z"/>
        </g>
      </g>
    </g>
  </g>
</svg>
