<svg id="Calque_2" data-name="Calque 2" xmlns="http://www.w3.org/2000/svg" viewBox="0 0 120 120">
  <defs>
    <style>
      .cls-1 {
        fill: #fff;
      }

      .cls-2 {
        fill: none;
      }
    </style>
  </defs>
  <title>tableau-family</title>
  <g>
    <path class="cls-1" d="M77.79,38.55V18.35h0L62.13,7.68l-21.45.88V95l14.78,18.1,22.8-2.53V95.25l4.55-.4V44Zm.42,3.56-17.61,1L58.06,40.5l17.73-1ZM57.33,21.31l18.34-.8V37.05L57.33,38Zm4.3-11.88,11,7.46-16.79.92L45.61,10.2ZM53.43,88.18V107.3l-10.63-13V12.79l10.63,7.94v20.1l4.66,4.57V93.13ZM76.14,108.7l-18.82,2.09v-15l2.49,2.79,16.33-1.75Zm4.55-15.8-19.9,1.77V47.09l19.9-1Z"/>
    <path class="cls-1" d="M80.4,84.06l-2-5.9h0l-.25,0-3.06.19-.36-2c.94-3.06,0-7,0-7.22l-.07-.28-10,.5.12.42a17.25,17.25,0,0,1,.37,6.69v.06L65.59,79,63,79.18h0l-1.49,3L63,87.76,78.95,86.2ZM65,85l-1.35-5.15,2.74-.17v0L77.9,78.9l1.63,4.8Zm9-15.35A15.17,15.17,0,0,1,74,76.28l0,.08.22,1.17L66.11,78l-.27-1.43a17.74,17.74,0,0,0-.29-6.51Zm-7.84,9.06,8.11-.46,0,.2L66.29,79Zm-4,3.55.87-1.74,1.26,4.78-1,1.3Zm16.28,3.3L64,87,65,85.69l14.34-1.27Z"/>
  </g>
  <g id="Calque_2-2" data-name="Calque 2-2">
    <g id="Calque_1-2-2" data-name="Calque 1-2-2">
      <rect class="cls-2" width="120" height="120"/>
    </g>
  </g>
</svg>
